<svg width="512" height="360" viewBox="0 0 512 360" fill="none" xmlns="http://www.w3.org/2000/svg">
<path d="M191.379 209.954H230.386C219.913 209.342 209.532 207.633 199.413 204.856C197.842 204.433 196.343 203.774 194.969 202.901C193.594 205.157 192.394 207.514 191.379 209.954Z" fill="#010101" fill-opacity="0.5"/>
<path d="M408.159 209.317C404.316 191.818 379.722 193.9 379.477 193.927C379.347 193.944 379.23 194.012 379.149 194.114C379.068 194.217 379.029 194.347 379.041 194.477C379.054 194.607 379.115 194.727 379.214 194.813C379.313 194.899 379.441 194.943 379.571 194.936C379.811 194.915 403.519 192.917 407.17 209.538C407.2 209.669 407.28 209.784 407.393 209.856C407.507 209.928 407.644 209.952 407.775 209.923C407.907 209.893 408.021 209.813 408.093 209.699C408.165 209.586 408.189 209.448 408.159 209.317Z" fill="url(#paint0_linear_513_577)"/>
<path d="M386.926 182.133C391.93 180.151 388.292 184.982 384.147 188.767C387.143 188.41 390.163 188.289 393.178 188.405C393.987 188.551 394.865 189.674 389.887 191.075C383.247 192.825 376.814 195.289 370.702 198.425L369.974 190.827C379.207 186.971 383.684 183.416 386.926 182.133Z" fill="#010101" fill-opacity="0.5"/>
<path d="M371.101 202.634L371.591 207.743C372.628 207.604 373.672 207.521 374.717 207.494C383.562 207.34 380.436 205.172 377.367 204.297C375.795 203.846 373.165 203.317 371.101 202.634Z" fill="#010101" fill-opacity="0.5"/>
<path d="M369.78 190.36C381.775 185.349 387.904 179.425 389.621 181.596C390.736 182.997 386.901 186.812 385.621 188.076C388.156 187.725 390.722 187.67 393.27 187.911C393.533 187.935 393.78 188.048 393.971 188.231C394.162 188.415 394.284 188.658 394.318 188.921C394.445 191.507 385.778 191.729 372.912 197.709C372.335 198.063 371.691 198.449 370.952 198.873C370.835 198.94 370.697 198.958 370.567 198.922C370.437 198.887 370.327 198.801 370.26 198.684C370.193 198.567 370.175 198.428 370.211 198.298C370.246 198.168 370.331 198.057 370.448 197.99C372.197 197.017 373.875 195.922 375.469 194.712C378.362 192.766 381.144 190.659 383.802 188.402C386.074 186.334 389.003 183.065 388.839 182.246C388.621 182.111 387.314 182.325 383.605 184.428C379.283 187.016 374.794 189.314 370.168 191.305C370.043 191.356 369.903 191.356 369.778 191.304C369.653 191.252 369.554 191.152 369.502 191.027C369.451 190.901 369.451 190.761 369.503 190.636C369.555 190.511 369.655 190.411 369.78 190.36ZM393.315 189.01C393.251 188.955 393.173 188.92 393.089 188.91C390.183 188.694 387.262 188.807 384.381 189.245C381.993 191.284 379.484 193.177 376.868 194.915C381.047 193.152 385.354 191.708 389.75 190.595C392.992 189.674 393.286 189.005 393.313 189.005L393.315 189.01Z" fill="url(#paint1_linear_513_577)"/>
<path d="M371.591 208.25C372.633 208.112 373.682 208.029 374.733 208.002C380.088 207.91 380.913 207.103 381.015 206.328C381.193 204.978 378.377 204.057 377.512 203.809C375.647 203.269 373.389 202.856 371.259 202.151C371.132 202.109 370.992 202.119 370.872 202.18C370.751 202.24 370.66 202.347 370.618 202.475C370.576 202.603 370.586 202.743 370.647 202.863C370.708 202.984 370.814 203.075 370.941 203.117C373.097 203.825 375.58 204.316 377.234 204.786C378.989 205.286 379.959 205.971 380.01 206.214C380.01 206.214 379.549 206.903 374.714 206.987C373.648 207.012 372.584 207.097 371.526 207.24C371.4 207.259 371.286 207.324 371.206 207.423C371.126 207.522 371.086 207.648 371.094 207.775C371.102 207.902 371.158 208.022 371.25 208.11C371.342 208.198 371.464 208.248 371.591 208.25Z" fill="url(#paint2_linear_513_577)"/>
<path d="M188.541 218.88H316.414L363.417 316.688C361.203 318.641 358.852 320.435 356.383 322.055L363.417 336.989C353.292 339.774 342.625 339.926 332.425 337.429L329.832 331.332C327.235 331.59 324.626 331.703 322.017 331.67L303.691 298.174L309.167 325.916C306.672 327.156 304.104 328.243 301.478 329.172L303.583 337.429C294.359 340.077 284.579 340.077 275.355 337.429L274.515 333.538C272.021 333.527 269.513 333.417 266.99 333.206L246.721 250.98L240.601 251.917L197.909 248.475L195.67 246.617C186.606 238.344 186.439 227.579 188.541 218.88Z" fill="#010101" fill-opacity="0.5"/>
<path d="M254.364 209.943C257.097 210.251 259.304 206.887 263.123 203.687C265.904 201.365 267.025 199.769 269.114 201.23C280.508 209.209 283.578 208.158 281.904 206.347C279.274 203.52 277.563 201.389 276.002 199.408C289.588 205.078 291.687 202.391 289.396 201.168C285.78 199.246 281.627 197.161 278.096 195.128C293.547 199.605 298.061 196.67 295.533 195.86C290.552 194.267 285.184 192.76 280.241 191.051C293.937 192.887 293.051 190.67 288.219 189.342C282.864 187.876 271.779 184.636 270.782 184.636C269.726 184.723 268.684 184.939 267.68 185.279C271.782 175.858 269.1 175.289 267.707 177.689C265.737 180.966 263.37 183.987 260.66 186.683C260.027 187.381 259.325 188.015 258.565 188.573L252.345 190.886L251.429 195.638C250.448 203.196 251.753 209.649 254.364 209.943Z" fill="#010101" fill-opacity="0.5"/>
<path d="M229.996 105.48C230.966 105.917 233.998 115.762 230.99 121.075C235.941 122.682 241.42 123.635 245.734 120.681C244.463 119.343 243.489 117.752 242.875 116.01L237.978 111.42C239.311 111.804 240.686 112.016 242.072 112.052C255.377 112.246 242.684 92.196 242.436 92.196C235.892 83.0322 231.481 92.79 231.901 98.5167C231.817 99.6588 231.27 99.972 229.43 98.6193C225.67 95.8653 222.946 102.31 229.996 105.48Z" fill="#010101" fill-opacity="0.5"/>
<path d="M360.264 148.337C362.472 148.51 364.681 148.013 366.602 146.909C368.523 145.805 370.067 144.147 371.033 142.15C371.999 140.153 372.341 137.911 372.016 135.717C371.69 133.522 370.712 131.477 369.208 129.848C367.704 128.219 365.745 127.082 363.587 126.586C361.428 126.09 359.17 126.257 357.108 127.066C355.046 127.875 353.275 129.288 352.027 131.121C350.779 132.954 350.112 135.121 350.112 137.34C350.01 140.145 351.02 142.877 352.923 144.937C354.825 146.998 357.465 148.221 360.264 148.337ZM360.264 127.355C362.271 127.181 364.284 127.619 366.038 128.61C367.793 129.601 369.208 131.1 370.098 132.911C370.988 134.721 371.312 136.759 371.027 138.757C370.741 140.755 369.861 142.62 368.499 144.108C367.138 145.596 365.36 146.637 363.399 147.095C361.437 147.554 359.383 147.408 357.505 146.677C355.627 145.947 354.013 144.665 352.875 143C351.737 141.334 351.127 139.364 351.125 137.345C351.02 134.807 351.922 132.331 353.635 130.458C355.348 128.584 357.731 127.467 360.264 127.35V127.355Z" fill="url(#paint3_linear_513_577)"/>
<path d="M359.431 124.569C359.841 124.569 360.339 124.542 360.299 124.013C360.272 122.98 360.029 121.964 359.587 121.03C359.145 120.096 358.512 119.265 357.731 118.591C356.949 117.916 356.036 117.413 355.048 117.113C354.061 116.813 353.022 116.724 351.998 116.85C351.865 116.859 351.741 116.922 351.653 117.023C351.565 117.124 351.521 117.256 351.529 117.39C351.721 119.444 352.631 121.364 354.098 122.811C355.625 123.986 357.506 124.606 359.431 124.569ZM352.618 117.859C354.239 117.766 355.833 118.307 357.062 119.368C358.292 120.43 359.063 121.929 359.21 123.548C357.589 123.642 355.996 123.101 354.766 122.039C353.536 120.978 352.766 119.479 352.618 117.859Z" fill="url(#paint4_linear_513_577)"/>
<path d="M340.693 49.2391H371.146C371.213 49.2391 371.279 49.2259 371.34 49.2004C371.402 49.1749 371.458 49.1375 371.505 49.0904C371.552 49.0433 371.589 48.9873 371.615 48.9257C371.64 48.8641 371.653 48.7981 371.653 48.7315V18.2215C371.653 18.0868 371.6 17.9577 371.505 17.8625C371.41 17.7673 371.281 17.7139 371.146 17.7139H340.693C340.559 17.7139 340.43 17.7673 340.335 17.8625C340.24 17.9577 340.186 18.0868 340.186 18.2215V48.7315C340.186 48.7981 340.199 48.8641 340.225 48.9257C340.25 48.9873 340.288 49.0433 340.335 49.0904C340.382 49.1375 340.438 49.1749 340.499 49.2004C340.561 49.2259 340.626 49.2391 340.693 49.2391ZM370.629 48.2239H341.202V18.7399H370.629V48.2239Z" fill="url(#paint5_linear_513_577)"/>
<path d="M345.867 0.234024C346.578 0.235782 347.269 0.470681 347.833 0.902803C348.398 1.33492 348.806 1.94049 348.995 2.62691C349.184 3.31333 349.143 4.04283 348.879 4.70387C348.615 5.36491 348.142 5.9211 347.533 6.28742L356.372 24.9633C356.43 25.0851 356.437 25.2247 356.392 25.3515C356.346 25.4784 356.253 25.582 356.131 25.6397C356.01 25.6973 355.87 25.7043 355.744 25.6589C355.617 25.6136 355.514 25.5198 355.456 25.398L346.59 6.66272C346.143 6.76616 345.68 6.7738 345.23 6.68516C344.78 6.59651 344.354 6.41359 343.98 6.14838C343.606 5.88317 343.292 5.54168 343.059 5.14633C342.826 4.75099 342.679 4.31072 342.628 3.85442C342.576 3.39813 342.622 2.93614 342.762 2.49877C342.901 2.0614 343.131 1.65853 343.437 1.31663C343.743 0.974736 344.118 0.701539 344.537 0.514958C344.956 0.328377 345.409 0.232631 345.867 0.234024Z" fill="url(#paint6_linear_513_577)"/>
<path d="M443.58 268.139H454.7V256.98C454.695 256.911 454.704 256.842 454.727 256.776C454.749 256.711 454.785 256.652 454.832 256.601C454.879 256.55 454.936 256.51 454.999 256.482C455.062 256.455 455.131 256.441 455.199 256.441C455.268 256.441 455.337 256.455 455.4 256.482C455.463 256.51 455.52 256.55 455.567 256.601C455.614 256.652 455.65 256.711 455.672 256.776C455.695 256.842 455.704 256.911 455.699 256.98V268.123H466.838C466.97 268.123 467.097 268.175 467.19 268.269C467.284 268.363 467.336 268.49 467.336 268.622C467.336 268.755 467.284 268.882 467.19 268.975C467.097 269.069 466.97 269.122 466.838 269.122H455.716V280.281C455.716 280.413 455.663 280.54 455.57 280.634C455.476 280.728 455.349 280.78 455.217 280.78C455.085 280.78 454.958 280.728 454.864 280.634C454.771 280.54 454.718 280.413 454.718 280.281V269.138H443.577C443.512 269.138 443.447 269.124 443.387 269.099C443.326 269.074 443.271 269.037 443.225 268.991C443.179 268.944 443.142 268.889 443.118 268.828C443.093 268.768 443.08 268.703 443.08 268.637C443.08 268.571 443.093 268.506 443.119 268.446C443.144 268.385 443.181 268.33 443.227 268.284C443.273 268.238 443.329 268.201 443.389 268.176C443.45 268.151 443.515 268.139 443.58 268.139Z" fill="url(#paint7_linear_513_577)"/>
<path d="M81.3126 255.06C81.4165 253.866 81.2249 252.665 80.7548 251.562C80.2847 250.46 79.5506 249.491 78.6175 248.741C77.6844 247.991 76.581 247.483 75.4052 247.262C74.2293 247.041 73.0172 247.114 71.8761 247.474C70.7351 247.834 69.7004 248.471 68.8635 249.328C68.0266 250.184 67.4135 251.234 67.0784 252.385C66.7432 253.536 66.6965 254.751 66.9422 255.924C67.1879 257.097 67.7185 258.192 68.4871 259.11C69.4119 260.215 70.6433 261.021 72.0253 261.425C73.4073 261.829 74.8779 261.813 76.251 261.38C77.6241 260.946 78.8379 260.114 79.7389 258.989C80.6399 257.864 81.1876 256.497 81.3126 255.06ZM74.0576 248.148C75.111 248.147 76.1475 248.412 77.0714 248.919C77.9953 249.426 78.7767 250.158 79.3433 251.048C79.9099 251.937 80.2434 252.956 80.3129 254.009C80.3825 255.062 80.1858 256.115 79.7411 257.072C79.2965 258.028 78.6182 258.857 77.7689 259.482C76.9197 260.106 75.9271 260.506 74.8828 260.644C73.8385 260.782 72.7763 260.654 71.7945 260.271C70.8127 259.889 69.9431 259.265 69.2659 258.457C68.504 257.541 68.0178 256.427 67.8642 255.245C67.7105 254.063 67.8957 252.861 68.3982 251.781C68.9006 250.7 69.6995 249.785 70.7016 249.142C71.7038 248.499 72.8677 248.156 74.0576 248.151V248.148Z" fill="url(#paint8_linear_513_577)"/>
<path d="M234.847 135.704C234.865 135.229 235.066 134.779 235.408 134.449C235.75 134.12 236.206 133.936 236.681 133.936C237.155 133.936 237.611 134.12 237.953 134.449C238.295 134.779 238.496 135.229 238.515 135.704C238.496 136.179 238.295 136.628 237.953 136.958C237.611 137.288 237.155 137.472 236.681 137.472C236.206 137.472 235.75 137.288 235.408 136.958C235.066 136.628 234.865 136.179 234.847 135.704Z" fill="url(#paint9_linear_513_577)"/>
<path d="M252.531 152.746C252.531 152.259 252.724 151.792 253.068 151.448C253.412 151.104 253.878 150.91 254.364 150.91C254.85 150.91 255.316 151.104 255.66 151.448C256.003 151.792 256.197 152.259 256.197 152.746C256.197 153.233 256.003 153.7 255.66 154.044C255.316 154.389 254.85 154.582 254.364 154.582C253.878 154.582 253.412 154.389 253.068 154.044C252.724 153.7 252.531 153.233 252.531 152.746Z" fill="url(#paint10_linear_513_577)"/>
<path d="M238.779 172.059C238.779 171.572 238.972 171.104 239.316 170.759C239.661 170.414 240.127 170.221 240.614 170.221C241.101 170.221 241.568 170.414 241.912 170.759C242.256 171.104 242.449 171.572 242.449 172.059C242.449 172.547 242.256 173.015 241.912 173.359C241.568 173.704 241.101 173.898 240.614 173.898C240.127 173.898 239.661 173.704 239.316 173.359C238.972 173.015 238.779 172.547 238.779 172.059Z" fill="url(#paint11_linear_513_577)"/>
<path d="M0.548859 358.2H271.388C271.266 351.119 272.431 344.074 274.824 337.41L274.056 334.049C271.586 334.058 269.118 333.912 266.667 333.611C266.451 333.401 268.041 339.605 246.336 251.566L240.56 252.436L230.424 251.626C230.308 251.617 230.198 251.569 230.114 251.488C230.029 251.408 229.975 251.301 229.959 251.186C229.944 251.07 229.969 250.952 230.03 250.853C230.091 250.754 230.185 250.679 230.295 250.64L245.268 245.348C245.335 245.325 245.406 245.315 245.477 245.321C245.548 245.326 245.617 245.346 245.679 245.38C245.742 245.413 245.797 245.459 245.841 245.515C245.885 245.571 245.916 245.636 245.934 245.705C246.257 247.022 267.225 332.105 267.392 332.747C271.931 333.112 276.49 333.14 281.034 332.831L262.344 243.866C262.084 242.623 261.581 241.444 260.863 240.398C260.145 239.352 259.227 238.458 258.162 237.77C257.098 237.081 255.907 236.611 254.66 236.387C253.412 236.162 252.133 236.188 250.895 236.462C223.266 242.591 198.68 238.722 201.577 210.48H191.727C185.943 224.334 186.04 238.83 198.001 247.908L198.055 247.954L196.246 247.808C184.798 238.263 185.078 223.57 190.924 209.778C191.891 207.468 193.016 205.227 194.29 203.072C191.65 201.297 189.582 198.793 188.338 195.862C187.094 192.932 186.727 189.702 187.283 186.566C189.894 171.7 196.483 144.541 204.617 137.038C211.299 131.323 218.923 126.818 227.147 123.724C228.185 123.35 229.111 122.72 229.84 121.892C230.569 121.063 231.077 120.063 231.316 118.985C231.389 117.679 231.739 104.419 216.494 101.619C215.686 101.438 214.947 101.03 214.363 100.442C213.779 99.8549 213.374 99.1127 213.197 98.3028C213.019 97.4929 213.076 96.6491 213.361 95.8706C213.646 95.092 214.146 94.4111 214.804 93.9078C215.633 93.2836 216.64 92.9445 217.677 92.9412C217.338 92.1635 217.225 91.3059 217.351 90.4668C217.477 89.6277 217.837 88.8412 218.389 88.1976C218.94 87.5539 219.662 87.0792 220.471 86.828C221.28 86.5767 222.143 86.5591 222.962 86.7771C222.813 86.0075 222.865 85.2123 223.114 84.4689C223.362 83.7255 223.798 83.0591 224.38 82.5346C224.962 82.0101 225.669 81.6452 226.433 81.4755C227.197 81.3058 227.992 81.337 228.74 81.5661C228.6 80.5472 228.81 79.5109 229.335 78.6271C229.859 77.7432 230.668 77.0641 231.629 76.7011C232.589 76.338 233.645 76.3126 234.621 76.629C235.598 76.9453 236.439 77.5846 237.005 78.4422C238.86 83.9528 241.316 89.2416 244.328 94.2129C248.882 102.205 251.852 112.303 242.641 112.573C242.897 115.376 244.04 118.023 245.901 120.131C247.763 122.239 250.247 123.697 252.992 124.294C269.701 129.029 280.912 162.48 290.52 177.281L344.989 186.129C345.055 186.14 345.118 186.164 345.174 186.199C345.231 186.234 345.28 186.28 345.319 186.334C345.398 186.444 345.43 186.58 345.408 186.714C345.386 186.847 345.312 186.966 345.203 187.045C345.093 187.123 344.957 187.155 344.824 187.133L339.591 186.28C335.127 193.272 333.564 201.733 335.236 209.862C335.259 209.995 335.23 210.131 335.153 210.242C335.077 210.352 334.959 210.428 334.827 210.452C334.695 210.476 334.559 210.446 334.448 210.37C334.338 210.293 334.262 210.175 334.238 210.043C332.593 201.81 334.117 193.259 338.505 186.105C292.479 178.612 290.291 178.302 290.019 178.202C289 177.813 281.567 162.939 281.101 162.002C273.606 147.087 264.276 128.522 252.696 125.241C250.704 124.702 248.826 123.807 247.152 122.598L249.039 126.834C249.08 126.93 249.092 127.037 249.071 127.139C249.05 127.242 248.999 127.336 248.923 127.408C248.848 127.48 248.752 127.527 248.648 127.543C248.545 127.559 248.44 127.542 248.346 127.496L240.679 123.605C246.19 138.185 248.939 157.163 249.082 181.507C254.334 181.855 258.037 182.009 257.765 182.017C258.749 182.033 260.05 182.703 260.905 185.643C261.498 185.017 262.107 184.347 262.721 183.64C265.173 172.915 265.337 161.792 263.201 150.999C263.174 150.867 263.201 150.73 263.276 150.618C263.351 150.506 263.466 150.428 263.598 150.401C263.73 150.375 263.867 150.402 263.979 150.477C264.091 150.551 264.169 150.667 264.195 150.8C266.214 161.072 266.201 171.641 264.158 181.909C265.299 180.494 266.339 178.999 267.268 177.435C267.947 176.266 268.885 175.731 269.612 176.085C270.911 176.744 270.531 179.727 268.548 184.52C271.574 183.726 269.841 183.769 288.353 188.84C290.073 189.312 292.089 190.101 291.93 191.167C291.816 191.923 290.773 192.261 288.485 192.261C283.963 192.261 282.031 191.019 295.684 195.366C298.516 196.265 296.417 200.093 281.982 196.667C283.308 197.377 288.45 200.075 289.636 200.717C292.035 201.994 291.442 206.033 277.6 200.601C278.861 202.164 280.311 203.884 282.273 206.001C283.163 206.962 282.761 207.578 282.616 207.745C281.433 209.095 276.148 206.771 268.825 201.646C267.454 200.685 266.723 201.222 264.651 203.039C266.738 205.72 269.547 207.748 272.745 208.885C275.944 210.022 279.4 210.221 282.707 209.457C282.84 209.434 282.976 209.464 283.086 209.542C283.197 209.619 283.272 209.737 283.295 209.87C283.318 210.003 283.288 210.14 283.21 210.25C283.133 210.36 283.015 210.435 282.882 210.459C279.404 211.247 275.773 211.032 272.412 209.837C269.05 208.642 266.096 206.517 263.891 203.709C259.716 207.3 257.409 210.459 254.728 210.459H202.625C201.671 219.525 203.558 226.427 208.255 231.006C218.329 240.828 239.17 238.007 250.696 235.45C252.065 235.146 253.48 235.117 254.86 235.364C256.24 235.612 257.557 236.132 258.736 236.893C259.914 237.655 260.929 238.643 261.724 239.8C262.518 240.958 263.075 242.262 263.363 243.636L282.079 332.736C291.294 332.067 300.298 329.656 308.617 325.63C276.546 163.155 301.119 287.619 291.442 238.59C290.442 233.448 287.926 228.724 284.218 225.03C280.511 221.335 275.782 218.839 270.644 217.865C270.512 217.839 270.395 217.762 270.32 217.651C270.244 217.539 270.216 217.402 270.242 217.269C270.267 217.137 270.344 217.02 270.455 216.944C270.567 216.869 270.704 216.84 270.836 216.866C276.172 217.878 281.083 220.47 284.933 224.307C288.784 228.144 291.397 233.05 292.436 238.39L296.104 256.972L339.057 329.18C347.847 326.894 355.977 322.569 362.792 316.555L315.966 219.107C315.908 218.985 315.9 218.846 315.945 218.719C315.989 218.592 316.082 218.488 316.203 218.429C316.325 218.371 316.464 218.363 316.591 218.408C316.718 218.452 316.822 218.545 316.88 218.667C366.163 321.461 364.131 316.558 363.816 317.006C361.676 318.919 359.4 320.673 357.006 322.255L363.786 336.565C375.835 340.712 386.452 348.218 394.391 358.2H511.586C511.96 358.2 512.874 359.55 511.475 359.628C505.153 360.033 449.49 359.466 0.55426 359.466C-0.116821 359.458 -0.122192 358.2 0.548859 358.2ZM195.128 203.606C194.016 205.493 193.019 207.446 192.144 209.454H201.698C201.829 208.374 202.002 207.262 202.216 206.117C199.737 205.661 197.347 204.811 195.136 203.598L195.128 203.606ZM231.591 121.804L232.322 127.804L238.283 123.073C236.008 122.935 233.759 122.508 231.591 121.804ZM247.182 109.157C249.02 105.107 244.921 97.1775 242.991 93.9483C241.627 91.6668 239.046 88.2783 236.504 89.064C234.141 89.8038 232.826 93.5622 232.491 96.084C232.222 98.1954 232.631 98.784 232.119 99.5616C231.58 100.372 230.559 99.9666 229.729 99.4401C229.071 99.0243 228.411 98.3358 227.425 98.4789C225.511 98.7489 225.207 102.591 229.85 104.864L230.195 105.026C231.645 105.685 234.259 115.386 231.707 120.781C236.019 122.131 241.083 122.941 244.945 120.584C243.853 119.325 243.001 117.875 242.433 116.307C237.138 111.336 237.394 111.687 237.491 111.266C237.841 110.405 238.569 111.463 241.975 111.536C244.153 111.542 246.265 111.169 247.182 109.157ZM245.514 121.434C244.289 122.175 242.934 122.672 241.522 122.898L247.538 125.951L245.514 121.434ZM239.52 123.386C231.704 129.596 232.198 129.27 231.928 129.27C231.804 129.27 231.685 129.225 231.592 129.143C231.499 129.061 231.439 128.947 231.424 128.824L230.651 122.471C229.812 123.478 228.714 124.235 227.476 124.661C219.379 127.707 211.873 132.142 205.293 137.767C198.386 144.136 191.627 167.61 188.272 186.723C187.604 190.543 188.392 194.476 190.479 197.742C192.566 201.009 195.8 203.372 199.542 204.365C209.624 207.126 219.966 208.829 230.4 209.446H240.412C238.299 198.058 239.361 188.878 243.579 182.144C233.173 181.485 222.825 180.103 212.61 178.007C212.479 177.979 212.364 177.899 212.291 177.786C212.218 177.672 212.194 177.534 212.222 177.403C212.251 177.271 212.331 177.156 212.444 177.083C212.557 177.01 212.694 176.985 212.826 177.014C214.61 177.405 216.386 177.759 218.124 178.072C218.842 170.402 220.168 162.801 222.089 155.341L222.121 155.257C222.162 155.167 222.229 155.09 222.314 155.037C222.398 154.985 222.496 154.959 222.596 154.962C222.695 154.965 222.791 154.997 222.872 155.055C222.953 155.113 223.015 155.194 223.051 155.287C223.132 155.557 223.086 154.175 223.086 178.907C231.098 180.124 240.021 180.907 248.077 181.45C247.934 156.937 245.131 137.926 239.52 123.386ZM244.732 182.23C240.39 188.816 239.285 197.969 241.447 209.446H252.634C250.831 207.286 250.146 201.74 250.939 195.536L251.863 190.749C252.423 187.84 253.767 185.139 255.749 182.94C251.809 182.719 248.149 182.484 244.732 182.23ZM269.154 177C269.071 176.957 268.615 177.157 268.143 177.945C266.121 181.266 263.71 184.332 260.961 187.079C262.902 186.342 265.295 185.484 267.297 184.884C269.86 178.939 269.407 177.13 269.154 177ZM263.268 202.901C262.561 201.94 261.956 200.907 261.465 199.818C261.415 199.693 261.416 199.553 261.469 199.429C261.521 199.305 261.621 199.207 261.746 199.157C261.87 199.106 262.01 199.107 262.134 199.16C262.258 199.213 262.355 199.312 262.406 199.437C262.848 200.424 263.389 201.362 264.023 202.237C266.004 200.498 267.322 199.362 269.413 200.817C278.306 207.027 281.497 207.332 281.826 207.151C281.796 206.698 281.387 207.016 273.9 197.555C273.816 197.45 273.777 197.316 273.792 197.182C273.807 197.048 273.874 196.925 273.98 196.841C274.085 196.757 274.219 196.718 274.352 196.733C274.486 196.748 274.608 196.816 274.692 196.921L276.309 198.989C286.416 203.182 289.472 202.472 289.685 202.089C289.666 201.789 288.539 201.279 285.545 199.713C282.211 197.963 278.053 195.79 275.097 193.937C274.983 193.866 274.902 193.752 274.872 193.62C274.841 193.489 274.865 193.351 274.936 193.237C275.008 193.123 275.122 193.041 275.253 193.011C275.384 192.981 275.522 193.005 275.636 193.076C276.444 193.584 277.342 194.113 278.296 194.656C290.256 198.117 294.848 196.959 295.597 196.438C295.527 196.4 279.495 191.545 275.924 189.971C275.806 189.914 275.716 189.813 275.671 189.69C275.626 189.567 275.63 189.431 275.683 189.311C275.735 189.191 275.832 189.096 275.953 189.046C276.074 188.996 276.209 188.995 276.331 189.042C277.328 189.48 278.735 189.998 280.355 190.554C283.813 191.167 287.337 191.318 290.835 191.005C290.003 190.438 289.069 190.039 288.084 189.831C283.233 188.505 271.698 185.154 270.782 185.144C268.203 185.144 260.172 188.6 252.787 191.259L251.93 195.695C251.181 201.573 251.806 206.981 253.448 208.85C253.584 209.029 253.759 209.177 253.96 209.28C254.16 209.384 254.381 209.442 254.607 209.449C256.773 209.562 258.916 206.617 263.268 202.901ZM219.582 209.446C214.073 208.708 208.607 207.675 203.207 206.352C203.011 207.41 202.852 208.442 202.722 209.446H219.582ZM329.296 352.706C328.964 352.436 333.392 352.53 272.536 352.53C272.33 354.316 272.277 356.116 272.377 357.911C281.459 357.927 321.2 358.181 335.769 358.181C333.791 356.399 331.514 354.463 329.296 352.706ZM356.141 322.83C350.873 326.213 345.093 328.719 339.025 330.25C338.974 330.274 338.919 330.288 338.863 330.29C336.128 330.974 333.349 331.472 330.546 331.778L332.797 337.021C342.636 339.407 352.915 339.284 362.695 336.662L356.141 322.83ZM301.163 329.85C292.769 332.695 283.96 334.12 275.099 334.065L275.781 337.048C284.672 339.53 294.07 339.543 302.968 337.086L301.163 329.85ZM309.498 326.297C307.109 327.514 304.645 328.578 302.122 329.483L304.009 337.024C312.98 340.267 321.347 344.99 328.765 350.996C329.316 346.38 330.364 341.836 331.888 337.445L329.495 331.872C326.943 332.108 324.38 332.199 321.817 332.142C321.496 332.002 321.863 332.439 304.771 301.022C309.983 327.45 309.841 325.986 309.498 326.297ZM296.665 259.939L304.108 297.68L322.318 331.16C327.605 331.222 332.88 330.642 338.028 329.434L296.665 259.939ZM387.855 352.53H330.703C332.443 353.937 335.729 356.675 337.281 358.2H393.097C391.467 356.205 389.716 354.311 387.855 352.53Z" fill="url(#paint12_linear_513_577)"/>
<path d="M163.712 125.833L229.069 122.62C228.468 123.112 227.783 123.489 227.047 123.735L163.763 126.848C162.553 126.909 161.369 127.231 160.295 127.793C159.22 128.355 158.279 129.143 157.537 130.103C156.794 131.063 156.268 132.173 155.994 133.356C155.719 134.539 155.704 135.767 155.948 136.957L165.111 181.45L188.59 179.703C188.517 180.051 188.447 180.397 188.377 180.737L165.318 182.452L178.699 247.373L194.484 246.196C195.035 246.736 195.619 247.267 196.235 247.789L240.579 251.404L246.09 250.562C246.174 250.894 246.255 251.223 246.335 251.553L241.107 252.363V262.769L248.879 261.888L249.127 262.885L241.134 263.786L247.222 358.675C247.226 358.807 247.179 358.935 247.09 359.032C247.002 359.129 246.879 359.188 246.748 359.196C246.617 359.205 246.488 359.162 246.388 359.077C246.288 358.992 246.224 358.871 246.211 358.74L240.123 263.87C239.743 263.87 244.705 264.081 184.606 259.194C183.188 259.073 181.855 258.464 180.833 257.471L166.412 358.781C166.403 358.847 166.38 358.91 166.346 358.968C166.312 359.025 166.267 359.075 166.214 359.115C166.16 359.155 166.1 359.184 166.035 359.201C165.97 359.217 165.903 359.221 165.837 359.211C165.771 359.202 165.708 359.179 165.65 359.145C165.593 359.111 165.543 359.066 165.503 359.012C165.463 358.959 165.434 358.898 165.418 358.833C165.401 358.768 165.398 358.701 165.407 358.635L179.96 256.415C179.028 254.998 180.858 262.72 154.948 137.173C154.674 135.838 154.692 134.461 154.999 133.134C155.307 131.807 155.897 130.562 156.729 129.485C157.562 128.408 158.617 127.524 159.822 126.894C161.027 126.263 162.354 125.901 163.712 125.833ZM180.138 254.304C180.404 255.341 180.985 256.27 181.8 256.963C182.615 257.655 183.625 258.077 184.69 258.17C184.69 258.17 239.975 262.844 240.102 262.844V252.384C240.102 252.384 185.251 247.916 185.124 247.916L178.925 248.375L180.138 254.304Z" fill="url(#paint13_linear_513_577)"/>
<path d="M53.4975 209.446H80.0136V204.37C80.0143 204.032 80.1484 203.708 80.3867 203.468C80.6249 203.228 80.9481 203.093 81.2857 203.09H101.83C101.314 202.612 100.94 202 100.749 201.323C100.559 200.645 100.559 199.928 100.75 199.25C100.941 198.572 101.316 197.961 101.832 197.483C102.348 197.005 102.986 196.68 103.676 196.543L72.4326 123.61C71.1572 123.525 69.9628 122.954 69.0945 122.014C68.2263 121.074 67.7502 119.837 67.764 118.556C67.7778 117.276 68.2805 116.049 69.1687 115.128C70.057 114.207 71.2635 113.662 72.5404 113.604L118.199 62.28C117.671 61.4316 117.496 60.4095 117.712 59.4332C117.928 58.457 118.518 57.6047 119.354 57.0594C120.191 56.514 121.207 56.3193 122.186 56.517C123.164 56.7147 124.026 57.289 124.586 58.1166L131.981 54.4149L121.953 44.2818C121.465 43.7886 121.079 43.2039 120.816 42.561C120.553 41.9182 120.42 41.2298 120.422 40.5352C120.425 39.8406 120.565 39.1533 120.833 38.5127C121.101 37.8721 121.492 37.2906 121.984 36.8015C122.477 36.3123 123.06 35.9251 123.702 35.662C124.343 35.3988 125.031 35.2649 125.724 35.2677C126.417 35.2706 127.103 35.4103 127.743 35.6788C128.382 35.9473 128.963 36.3393 129.451 36.8325L140.131 47.6325L165.418 54.5364C165.951 54.6816 166.436 54.9647 166.825 55.3574C167.213 55.7501 167.492 56.2385 167.632 56.7733C167.773 57.3082 167.77 57.8706 167.625 58.4041C167.479 58.9376 167.196 59.4232 166.803 59.8122L159.934 66.6351C160.793 67.9277 161.177 69.4791 161.02 71.0239C160.863 72.5688 160.176 74.0112 159.075 75.1044C157.975 76.1976 156.529 76.8737 154.986 77.0171C153.442 77.1606 151.897 76.7624 150.615 75.8907L144.416 82.0521C144.025 82.4416 143.538 82.721 143.004 82.862C142.471 83.0031 141.91 83.0008 141.378 82.8554C140.845 82.7101 140.361 82.4268 139.972 82.034C139.584 81.6413 139.306 81.153 139.166 80.6184L132.507 55.2951L125.034 59.0319C125.292 59.8304 125.281 60.692 125.003 61.4837C124.724 62.2754 124.193 62.9532 123.491 63.4124C122.79 63.8716 121.957 64.0867 121.121 64.0245C120.286 63.9624 119.494 63.6264 118.867 63.0684L73.8124 113.704C74.9597 113.947 75.9853 114.586 76.7103 115.51C77.4353 116.433 77.8137 117.582 77.7794 118.756C77.745 119.931 77.3002 121.056 76.5225 121.935C75.7448 122.814 74.6836 123.392 73.5241 123.567L104.759 196.483C105.492 196.551 106.191 196.83 106.769 197.287C107.348 197.743 107.782 198.358 108.019 199.056C108.257 199.755 108.287 200.507 108.107 201.222C107.927 201.938 107.544 202.586 107.004 203.088H127.548C127.886 203.09 128.209 203.226 128.447 203.465C128.685 203.705 128.819 204.029 128.82 204.367V209.443H135.49C135.02 208.906 134.762 208.216 134.763 207.502V201.708C132.789 201.57 130.94 200.688 129.59 199.238C128.24 197.788 127.49 195.879 127.49 193.897C127.49 191.914 128.24 190.006 129.59 188.556C130.94 187.106 132.789 186.223 134.763 186.086V180.289C134.763 179.501 135.075 178.746 135.631 178.189C136.187 177.632 136.941 177.319 137.727 177.319H156.137C156.923 177.319 157.677 177.632 158.233 178.189C158.789 178.746 159.101 179.501 159.101 180.289V207.508C159.102 208.221 158.843 208.91 158.373 209.446H329.072C329.306 208.799 329.734 208.24 330.296 207.845C330.858 207.449 331.528 207.236 332.214 207.235H338.841C339.775 207.229 340.674 206.88 341.369 206.255C342.064 205.631 342.507 204.773 342.614 203.844L345.39 176.998H308.865C306.363 176.998 303.964 176.002 302.195 174.23C300.426 172.458 299.433 170.054 299.433 167.548V102.842C299.433 100.336 300.426 97.9322 302.195 96.1599C303.964 94.3877 306.363 93.3921 308.865 93.3921H400.589C403.091 93.3921 405.49 94.3877 407.259 96.1599C409.028 97.9322 410.022 100.336 410.022 102.842V167.561C410.022 170.067 409.028 172.471 407.259 174.243C405.49 176.015 403.091 177.011 400.589 177.011H369.158L372.265 209.446H450.751C452.068 209.446 453.331 209.97 454.262 210.903C455.193 211.836 455.716 213.101 455.716 214.42C455.716 215.739 455.193 217.004 454.262 217.936C453.331 218.869 452.068 219.393 450.751 219.393H396.956C423.75 368.023 421.985 357.97 421.985 358.713C421.985 358.848 421.932 358.977 421.837 359.072C421.742 359.167 421.613 359.221 421.478 359.221H412.496C412.377 359.221 412.262 359.179 412.171 359.102C412.08 359.026 412.018 358.919 411.997 358.802L386.872 219.393H117.372L92.2436 358.789C92.2227 358.906 92.1613 359.012 92.0701 359.089C91.979 359.165 91.864 359.207 91.745 359.207H82.7653C82.6309 359.207 82.502 359.154 82.407 359.058C82.3119 358.963 82.2586 358.834 82.2586 358.699C82.2586 357.973 80.5715 367.582 107.284 219.393H53.4895C52.1729 219.393 50.9102 218.869 49.9793 217.936C49.0483 217.004 48.5253 215.739 48.5253 214.42C48.5253 213.101 49.0483 211.836 49.9793 210.903C50.9102 209.97 52.1729 209.446 53.4895 209.446H53.4975ZM156.339 75.6774C157.127 75.3872 157.841 74.925 158.429 74.3242C159.017 73.7233 159.464 72.9989 159.737 72.2036C160.011 71.4082 160.105 70.5618 160.011 69.7257C159.918 68.8896 159.64 68.0847 159.198 67.3695L151.35 75.1617C152.086 75.6259 152.919 75.9139 153.784 76.0033C154.65 76.0928 155.524 75.9812 156.339 75.6774ZM133.526 54.2421L139.414 48.78C139.504 48.6864 139.555 48.5621 139.556 48.4324C139.558 48.3027 139.51 48.1772 139.422 48.0816C139.335 47.986 139.214 47.9274 139.085 47.9177C138.956 47.908 138.828 47.9479 138.727 48.0294L132.838 53.4942C132.755 53.5877 132.71 53.7087 132.71 53.8338C132.711 53.959 132.758 54.0795 132.842 54.1722C132.926 54.2649 133.041 54.3234 133.165 54.3363C133.289 54.3492 133.414 54.3156 133.515 54.2421H133.526ZM121.398 63.036C121.952 63.0365 122.494 62.8724 122.955 62.5643C123.416 62.2563 123.775 61.8182 123.987 61.3055C124.199 60.7928 124.255 60.2285 124.147 59.6841C124.039 59.1396 123.773 58.6395 123.381 58.247C122.989 57.8546 122.49 57.5873 121.946 57.4792C121.403 57.371 120.84 57.4268 120.328 57.6395C119.816 57.8521 119.379 58.2121 119.071 58.6738C118.764 59.1356 118.6 59.6783 118.601 60.2334C118.601 60.6021 118.675 60.9672 118.816 61.3076C118.958 61.648 119.165 61.9571 119.425 62.2174C119.686 62.4776 119.996 62.6839 120.336 62.8243C120.676 62.9648 121.041 63.0367 121.409 63.036H121.398ZM76.7527 118.613C76.7532 117.822 76.5197 117.049 76.0816 116.391C75.6434 115.733 75.0204 115.22 74.2913 114.917C73.5622 114.614 72.7597 114.534 71.9854 114.688C71.211 114.841 70.4996 115.222 69.941 115.781C69.3824 116.34 69.0018 117.052 68.8473 117.827C68.6928 118.603 68.7713 119.407 69.0729 120.138C69.3745 120.869 69.8857 121.494 70.5417 121.933C71.1978 122.373 71.9693 122.608 72.7587 122.609C73.2837 122.61 73.8037 122.508 74.2892 122.308C74.7747 122.108 75.216 121.814 75.588 121.443C75.9599 121.071 76.2552 120.63 76.4568 120.145C76.6586 119.659 76.7628 119.139 76.7635 118.613H76.7527ZM134.746 187.104C133.035 187.232 131.436 188.003 130.269 189.263C129.102 190.523 128.453 192.178 128.453 193.897C128.453 195.616 129.102 197.271 130.269 198.531C131.436 199.791 133.035 200.562 134.746 200.69V187.104ZM400.589 175.982C402.815 175.981 404.95 175.096 406.527 173.521C408.103 171.947 408.993 169.81 409 167.58V102.842C409.001 101.735 408.784 100.639 408.361 99.6161C407.938 98.5933 407.319 97.6638 406.538 96.8808C405.757 96.0978 404.83 95.4766 403.809 95.0527C402.788 94.6287 401.694 94.4104 400.589 94.41H312.226C309.997 94.4129 307.861 95.301 306.285 96.8797C304.709 98.4584 303.823 100.599 303.82 102.831V167.564C303.824 169.796 304.71 171.936 306.286 173.514C307.862 175.092 309.998 175.98 312.226 175.982H400.589ZM371.241 209.446L368.133 176.998H349.754L346.21 209.446H371.241ZM107.206 200.288C107.206 199.733 107.042 199.192 106.735 198.731C106.427 198.27 105.991 197.911 105.479 197.699C104.968 197.486 104.406 197.431 103.863 197.539C103.32 197.647 102.822 197.914 102.431 198.306C102.039 198.698 101.773 199.197 101.665 199.741C101.557 200.285 101.613 200.848 101.824 201.36C102.036 201.872 102.395 202.31 102.855 202.618C103.315 202.926 103.855 203.09 104.409 203.09C105.151 203.09 105.863 202.795 106.389 202.27C106.914 201.744 107.21 201.032 107.212 200.288H107.206ZM81.0216 209.446H127.801V204.37C127.801 203.96 130.602 204.1 81.2884 204.1C81.2169 204.1 81.1484 204.129 81.0978 204.179C81.0473 204.23 81.0189 204.299 81.0189 204.37L81.0216 209.446Z" fill="url(#paint14_linear_513_577)"/>
<defs>
<linearGradient id="paint0_linear_513_577" x1="408.172" y1="193.837" x2="379.039" y2="193.837" gradientUnits="userSpaceOnUse">
<stop stop-color="#BD5103"/>
<stop offset="0.510417" stop-color="#9929A3"/>
<stop offset="1" stop-color="#7646FF"/>
</linearGradient>
<linearGradient id="paint1_linear_513_577" x1="394.319" y1="181.135" x2="369.464" y2="181.135" gradientUnits="userSpaceOnUse">
<stop stop-color="#BD5103"/>
<stop offset="0.510417" stop-color="#9929A3"/>
<stop offset="1" stop-color="#7646FF"/>
</linearGradient>
<linearGradient id="paint2_linear_513_577" x1="381.023" y1="202.125" x2="370.593" y2="202.125" gradientUnits="userSpaceOnUse">
<stop stop-color="#BD5103"/>
<stop offset="0.510417" stop-color="#9929A3"/>
<stop offset="1" stop-color="#7646FF"/>
</linearGradient>
<linearGradient id="paint3_linear_513_577" x1="372.135" y1="126.306" x2="350.105" y2="126.306" gradientUnits="userSpaceOnUse">
<stop stop-color="#BD5103"/>
<stop offset="0.510417" stop-color="#9929A3"/>
<stop offset="1" stop-color="#7646FF"/>
</linearGradient>
<linearGradient id="paint4_linear_513_577" x1="360.301" y1="116.794" x2="351.528" y2="116.794" gradientUnits="userSpaceOnUse">
<stop stop-color="#BD5103"/>
<stop offset="0.510417" stop-color="#9929A3"/>
<stop offset="1" stop-color="#7646FF"/>
</linearGradient>
<linearGradient id="paint5_linear_513_577" x1="371.653" y1="17.7139" x2="340.186" y2="17.7139" gradientUnits="userSpaceOnUse">
<stop stop-color="#BD5103"/>
<stop offset="0.510417" stop-color="#9929A3"/>
<stop offset="1" stop-color="#7646FF"/>
</linearGradient>
<linearGradient id="paint6_linear_513_577" x1="356.421" y1="0.234009" x2="342.607" y2="0.234009" gradientUnits="userSpaceOnUse">
<stop stop-color="#BD5103"/>
<stop offset="0.510417" stop-color="#9929A3"/>
<stop offset="1" stop-color="#7646FF"/>
</linearGradient>
<linearGradient id="paint7_linear_513_577" x1="467.336" y1="256.441" x2="443.08" y2="256.441" gradientUnits="userSpaceOnUse">
<stop stop-color="#BD5103"/>
<stop offset="0.510417" stop-color="#9929A3"/>
<stop offset="1" stop-color="#7646FF"/>
</linearGradient>
<linearGradient id="paint8_linear_513_577" x1="81.3401" y1="247.137" x2="66.787" y2="247.137" gradientUnits="userSpaceOnUse">
<stop stop-color="#BD5103"/>
<stop offset="0.510417" stop-color="#9929A3"/>
<stop offset="1" stop-color="#7646FF"/>
</linearGradient>
<linearGradient id="paint9_linear_513_577" x1="238.515" y1="133.936" x2="234.847" y2="133.936" gradientUnits="userSpaceOnUse">
<stop stop-color="#BD5103"/>
<stop offset="0.510417" stop-color="#9929A3"/>
<stop offset="1" stop-color="#7646FF"/>
</linearGradient>
<linearGradient id="paint10_linear_513_577" x1="256.197" y1="150.91" x2="252.531" y2="150.91" gradientUnits="userSpaceOnUse">
<stop stop-color="#BD5103"/>
<stop offset="0.510417" stop-color="#9929A3"/>
<stop offset="1" stop-color="#7646FF"/>
</linearGradient>
<linearGradient id="paint11_linear_513_577" x1="242.449" y1="170.221" x2="238.779" y2="170.221" gradientUnits="userSpaceOnUse">
<stop stop-color="#BD5103"/>
<stop offset="0.510417" stop-color="#9929A3"/>
<stop offset="1" stop-color="#7646FF"/>
</linearGradient>
<linearGradient id="paint12_linear_513_577" x1="512.226" y1="76.4089" x2="0.0482788" y2="76.4089" gradientUnits="userSpaceOnUse">
<stop stop-color="#BD5103"/>
<stop offset="0.510417" stop-color="#9929A3"/>
<stop offset="1" stop-color="#7646FF"/>
</linearGradient>
<linearGradient id="paint13_linear_513_577" x1="249.127" y1="122.62" x2="154.755" y2="122.62" gradientUnits="userSpaceOnUse">
<stop stop-color="#BD5103"/>
<stop offset="0.510417" stop-color="#9929A3"/>
<stop offset="1" stop-color="#7646FF"/>
</linearGradient>
<linearGradient id="paint14_linear_513_577" x1="455.716" y1="35.2677" x2="48.5253" y2="35.2677" gradientUnits="userSpaceOnUse">
<stop stop-color="#BD5103"/>
<stop offset="0.510417" stop-color="#9929A3"/>
<stop offset="1" stop-color="#7646FF"/>
</linearGradient>
</defs>
</svg>
